<svg width="50" height="55" viewBox="0 0 50 55" fill="none" xmlns="http://www.w3.org/2000/svg">
<path d="M37.0807 53.2747C37.326 53.52 37.6429 53.6427 37.97 53.6427C38.297 53.6427 38.6139 53.52 38.8592 53.2747L48.5178 43.6161C49.0084 43.1255 49.0084 42.3385 48.5178 41.8479L38.8592 32.1893C38.3686 31.6987 37.5816 31.6987 37.091 32.1893C36.6004 32.6799 36.6004 33.4669 37.091 33.9575L44.6135 41.48H1.79866C1.10365 41.48 0.541504 42.0421 0.541504 42.7371C0.541504 43.4321 1.10365 43.9943 1.79866 43.9943H44.6032L37.0807 51.5066C36.5902 51.9971 36.5902 52.7944 37.0807 53.2747Z" fill="black"/>
<path d="M10.5783 2.36795L0.919675 12.0266C0.429078 12.5172 0.429078 13.3042 0.919675 13.7948L10.5783 23.4534C10.8236 23.6987 11.1404 23.8213 11.4675 23.8213C11.7946 23.8213 12.1114 23.6987 12.3567 23.4534C12.8473 22.9628 12.8473 22.1758 12.3567 21.6852L4.83423 14.1627H47.6388C48.3338 14.1627 48.896 13.6006 48.896 12.9056C48.896 12.2105 48.3338 11.6484 47.6388 11.6484H4.82401L12.3465 4.13614C12.8371 3.64554 12.8371 2.85854 12.3465 2.36795C11.8559 1.87735 11.0587 1.87735 10.5783 2.36795Z" fill="black"/>
</svg>
